# xmcd
#
# Track frame offsets: 
#        150
#        18148
#        49076
#        79428
#        117860
#        155977
#        174262
#        203817
#        232148
#        267420
#        287071
#        317920
#        335086
#
# Disc length: 4727 seconds
#
# Revision: 0
# Processed by: cddbd v1.5.2PL0 Copyright (c) Steve Scherf et al.
# Submitted via: ExactAudioCopy v0.99pb5
#
DISCID=c012750d
DTITLE=Lefty Dizz - Ain't it nice to be loved
DYEAR=1990
DGENRE=Blues
TTITLE0=Cloudy weather
TTITLE1=That's alright in the dark
TTITLE2=I feel like jumping
TTITLE3=Bad avenue
TTITLE4=Ain't it nice to be loved
TTITLE5=Look on yonders wall
TTITLE6=Too late
TTITLE7=Sadie
TTITLE8=Where the hell were you when I got home
TTITLE9=Rambling woman (bonus track)
TTITLE10=Burying ground (bonus track)
TTITLE11=Swear to tell the truth (bonus track)
TTITLE12=Drink too much (bonus track)
EXTD=
EXTT0=
EXTT1=
EXTT2=
EXTT3=
EXTT4=
EXTT5=
EXTT6=
EXTT7=
EXTT8=
EXTT9=
EXTT10=
EXTT11=
EXTT12=
PLAYORDER=
